<?xml version="1.0" standalone="no"?>
<!DOCTYPE svg PUBLIC "-//W3C//DTD SVG 20010904//EN"
 "http://www.w3.org/TR/2001/REC-SVG-20010904/DTD/svg10.dtd">
<svg version="1.0" xmlns="http://www.w3.org/2000/svg"
 width="64.000000pt" height="64.000000pt" viewBox="0 0 64.000000 64.000000"
 preserveAspectRatio="xMidYMid meet">

<g transform="translate(0.000000,64.000000) scale(0.100000,-0.100000)"
fill="#000000" stroke="none">
<path d="M225 521 c-153 -71 -171 -284 -32 -378 94 -63 198 -53 278 27 79 79
87 187 22 282 -53 78 -179 110 -268 69z m181 -10 c79 -36 133 -137 119 -222
-11 -63 -56 -123 -116 -153 -81 -40 -160 -31 -225 26 -120 106 -89 299 58 358
39 15 120 11 164 -9z"/>
<path d="M312 341 c-2 -67 -3 -72 -19 -60 -15 13 -15 12 -5 -8 12 -21 31 -39
35 -32 2 2 0 42 -3 89 l-7 85 -1 -74z"/>
<path d="M337 283 c-4 -3 -7 -11 -7 -17 0 -6 5 -5 12 2 6 6 9 14 7 17 -3 3 -9
2 -12 -2z"/>
</g>
</svg>
